Khula-wt439.67.ufo
<glyph name="exclam.deva" format="1">
  <advance width="867"/>
  <unicode hex="0021"/>
  <outline>
    <contour>
      <point x="514" y="400" type="line"/>
      <point x="357" y="400" type="line"/>
      <point x="310" y="1316" type="line"/>
      <point x="560" y="1316" type="line"/>
    </contour>
    <contour>
      <point x="300" y="112" type="curve" smooth="yes"/>
      <point x="300" y="201"/>
      <point x="348" y="248"/>
      <point x="435" y="248" type="curve" smooth="yes"/>
      <point x="520" y="248"/>
      <point x="567" y="197"/>
      <point x="567" y="112" type="curve" smooth="yes"/>
      <point x="567" y="28"/>
      <point x="519" y="-26"/>
      <point x="435" y="-26" type="curve" smooth="yes"/>
      <point x="350" y="-26"/>
      <point x="300" y="24"/>
    </contour>
  </outline>
</glyph>
<glyph name="numbersign.deva" format="1">
  <advance width="1391"/>
  <unicode hex="0023"/>
  <outline>
    <contour>
      <point x="990" y="783" type="line"/>
      <point x="941" y="527" type="line"/>
      <point x="1184" y="527" type="line"/>
      <point x="1184" y="376" type="line"/>
      <point x="911" y="376" type="line"/>
      <point x="839" y="0" type="line"/>
      <point x="679" y="0" type="line"/>
      <point x="751" y="376" type="line"/>
      <point x="527" y="376" type="line"/>
      <point x="455" y="0" type="line"/>
      <point x="299" y="0" type="line"/>
      <point x="367" y="376" type="line"/>
      <point x="142" y="376" type="line"/>
      <point x="142" y="527" type="line"/>
      <point x="397" y="527" type="line"/>
      <point x="448" y="783" type="line"/>
      <point x="211" y="783" type="line"/>
      <point x="211" y="934" type="line"/>
      <point x="474" y="934" type="line"/>
      <point x="546" y="1314" type="line"/>
      <point x="708" y="1314" type="line"/>
      <point x="636" y="934" type="line"/>
      <point x="863" y="934" type="line"/>
      <point x="935" y="1314" type="line"/>
      <point x="1092" y="1314" type="line"/>
      <point x="1020" y="934" type="line"/>
      <point x="1247" y="934" type="line"/>
      <point x="1247" y="783" type="line"/>
    </contour>
    <contour>
      <point x="555" y="527" type="line"/>
      <point x="780" y="527" type="line"/>
      <point x="832" y="783" type="line"/>
      <point x="607" y="783" type="line"/>
    </contour>
  </outline>
</glyph>
<glyph name="percent.deva" format="1">
  <advance width="1788"/>
  <unicode hex="0025"/>
  <outline>
    <contour>
      <point x="351" y="922" type="curve" smooth="yes"/>
      <point x="351" y="742"/>
      <point x="383" y="656"/>
      <point x="463" y="656" type="curve" smooth="yes"/>
      <point x="542" y="656"/>
      <point x="581" y="745"/>
      <point x="581" y="922" type="curve" smooth="yes"/>
      <point x="581" y="1099"/>
      <point x="542" y="1187"/>
      <point x="463" y="1187" type="curve" smooth="yes"/>
      <point x="383" y="1187"/>
      <point x="351" y="1101"/>
    </contour>
    <contour>
      <point x="756" y="923" type="curve" smooth="yes"/>
      <point x="756" y="647"/>
      <point x="656" y="508"/>
      <point x="463" y="508" type="curve" smooth="yes"/>
      <point x="280" y="508"/>
      <point x="176" y="658"/>
      <point x="176" y="923" type="curve" smooth="yes"/>
      <point x="176" y="1198"/>
      <point x="272" y="1335"/>
      <point x="463" y="1335" type="curve" smooth="yes"/>
      <point x="651" y="1335"/>
      <point x="756" y="1187"/>
    </contour>
    <contour>
      <point x="1208" y="396" type="curve" smooth="yes"/>
      <point x="1208" y="217"/>
      <point x="1241" y="129"/>
      <point x="1320" y="129" type="curve" smooth="yes"/>
      <point x="1399" y="129"/>
      <point x="1438" y="218"/>
      <point x="1438" y="396" type="curve" smooth="yes"/>
      <point x="1438" y="572"/>
      <point x="1399" y="660"/>
      <point x="1320" y="660" type="curve" smooth="yes"/>
      <point x="1241" y="660"/>
      <point x="1208" y="575"/>
    </contour>
    <contour>
      <point x="1613" y="396" type="curve" smooth="yes"/>
      <point x="1613" y="120"/>
      <point x="1511" y="-18"/>
      <point x="1320" y="-18" type="curve" smooth="yes"/>
      <point x="1139" y="-18"/>
      <point x="1032" y="128"/>
      <point x="1032" y="396" type="curve" smooth="yes"/>
      <point x="1032" y="670"/>
      <point x="1128" y="807"/>
      <point x="1320" y="807" type="curve" smooth="yes"/>
      <point x="1505" y="807"/>
      <point x="1613" y="661"/>
    </contour>
    <contour>
      <point x="1346" y="1316" type="line"/>
      <point x="616" y="0" type="line"/>
      <point x="441" y="0" type="line"/>
      <point x="1171" y="1316" type="line"/>
    </contour>
  </outline>
</glyph>
<glyph name="semicolon.deva" format="1">
  <advance width="728"/>
  <unicode hex="003B"/>
  <outline>
    <contour>
      <point x="500" y="214" type="line"/>
      <point x="514" y="193" type="line"/>
      <point x="485" y="82"/>
      <point x="432" y="-62"/>
      <point x="355" y="-238" type="curve"/>
      <point x="200" y="-238" type="line"/>
      <point x="241" y="-76"/>
      <point x="272" y="75"/>
      <point x="292" y="214" type="curve"/>
    </contour>
    <contour>
      <point x="261" y="881" type="curve" smooth="yes"/>
      <point x="261" y="972"/>
      <point x="305" y="1017"/>
      <point x="394" y="1017" type="curve" smooth="yes"/>
      <point x="485" y="1017"/>
      <point x="528" y="966"/>
      <point x="528" y="881" type="curve" smooth="yes"/>
      <point x="528" y="796"/>
      <point x="481" y="742"/>
      <point x="394" y="742" type="curve" smooth="yes"/>
      <point x="307" y="742"/>
      <point x="261" y="794"/>
    </contour>
  </outline>
</glyph>
<glyph name="question.deva" format="1">
  <advance width="1313"/>
  <unicode hex="003F"/>
  <outline>
    <contour>
      <point x="499" y="400" type="line"/>
      <point x="499" y="457" type="line" smooth="yes"/>
      <point x="499" y="523"/>
      <point x="511" y="578"/>
      <point x="535" y="622" type="curve" smooth="yes"/>
      <point x="559" y="666"/>
      <point x="601" y="711"/>
      <point x="661" y="758" type="curve" smooth="yes"/>
      <point x="732" y="814"/>
      <point x="778" y="858"/>
      <point x="799" y="889" type="curve" smooth="yes"/>
      <point x="820" y="920"/>
      <point x="830" y="958"/>
      <point x="830" y="1001" type="curve" smooth="yes"/>
      <point x="830" y="1101"/>
      <point x="760" y="1157"/>
      <point x="635" y="1157" type="curve" smooth="yes"/>
      <point x="520" y="1157"/>
      <point x="426" y="1120"/>
      <point x="334" y="1075" type="curve"/>
      <point x="258" y="1233" type="line"/>
      <point x="380" y="1301"/>
      <point x="511" y="1335"/>
      <point x="650" y="1335" type="curve" smooth="yes"/>
      <point x="767" y="1335"/>
      <point x="860" y="1306"/>
      <point x="929" y="1248" type="curve" smooth="yes"/>
      <point x="998" y="1191"/>
      <point x="1033" y="1111"/>
      <point x="1033" y="1010" type="curve" smooth="yes"/>
      <point x="1033" y="965"/>
      <point x="1026" y="924"/>
      <point x="1013" y="889" type="curve" smooth="yes"/>
      <point x="1000" y="854"/>
      <point x="981" y="821"/>
      <point x="954" y="789" type="curve" smooth="yes"/>
      <point x="927" y="758"/>
      <point x="881" y="716"/>
      <point x="815" y="665" type="curve" smooth="yes"/>
      <point x="760" y="621"/>
      <point x="722" y="585"/>
      <point x="703" y="556" type="curve" smooth="yes"/>
      <point x="684" y="527"/>
      <point x="675" y="489"/>
      <point x="675" y="440" type="curve" smooth="yes"/>
      <point x="675" y="400" type="line"/>
    </contour>
    <contour>
      <point x="462" y="112" type="curve" smooth="yes"/>
      <point x="462" y="203"/>
      <point x="506" y="248"/>
      <point x="594" y="248" type="curve" smooth="yes"/>
      <point x="681" y="248"/>
      <point x="727" y="199"/>
      <point x="727" y="112" type="curve" smooth="yes"/>
      <point x="727" y="28"/>
      <point x="679" y="-26"/>
      <point x="594" y="-26" type="curve" smooth="yes"/>
      <point x="509" y="-26"/>
      <point x="462" y="25"/>
    </contour>
  </outline>
</glyph>
<glyph name="underscore.deva" format="1">
  <advance width="791"/>
  <unicode hex="005F"/>
  <outline>
    <contour>
      <point x="795" y="-287" type="line"/>
      <point x="-4" y="-287" type="line"/>
      <point x="-4" y="-166" type="line"/>
      <point x="795" y="-166" type="line"/>
    </contour>
  </outline>
</glyph>
<glyph name="z" format="1">
  <advance width="881"/>
  <unicode hex="007A"/>
  <outline>
    <contour>
      <point x="816" y="0" type="line"/>
      <point x="61" y="0" type="line"/>
      <point x="61" y="130" type="line"/>
      <point x="564" y="833" type="line"/>
      <point x="92" y="833" type="line"/>
      <point x="92" y="995" type="line"/>
      <point x="802" y="995" type="line"/>
      <point x="802" y="848" type="line"/>
      <point x="310" y="162" type="line"/>
      <point x="816" y="162" type="line"/>
    </contour>
  </outline>
</glyph>
<glyph name="braceright.deva" format="1">
  <advance width="763"/>
  <unicode hex="007D"/>
  <outline>
    <contour>
      <point x="457" y="82" type="line" smooth="yes"/>
      <point x="457" y="-105"/>
      <point x="344" y="-189"/>
      <point x="80" y="-192" type="curve"/>
      <point x="80" y="-27" type="line"/>
      <point x="195" y="-26"/>
      <point x="261" y="13"/>
      <point x="261" y="124" type="curve" smooth="yes"/>
      <point x="261" y="360" type="line" smooth="yes"/>
      <point x="261" y="505"/>
      <point x="320" y="582"/>
      <point x="467" y="607" type="curve"/>
      <point x="467" y="617" type="line"/>
      <point x="330" y="641"/>
      <point x="261" y="713"/>
      <point x="261" y="832" type="curve" smooth="yes"/>
      <point x="261" y="1099" type="line" smooth="yes"/>
      <point x="261" y="1198"/>
      <point x="212" y="1245"/>
      <point x="80" y="1252" type="curve"/>
      <point x="80" y="1416" type="line"/>
      <point x="214" y="1416"/>
      <point x="310" y="1393"/>
      <point x="369" y="1347" type="curve" smooth="yes"/>
      <point x="428" y="1301"/>
      <point x="457" y="1226"/>
      <point x="457" y="1121" type="curve" smooth="yes"/>
      <point x="457" y="863" type="line" smooth="yes"/>
      <point x="457" y="743"/>
      <point x="534" y="698"/>
      <point x="683" y="698" type="curve"/>
      <point x="683" y="526" type="line"/>
      <point x="536" y="526"/>
      <point x="457" y="479"/>
      <point x="457" y="358" type="curve" smooth="yes"/>
    </contour>
  </outline>
</glyph>
<glyph name="ideva" format="1">
  <advance width="1051"/>
  <unicode hex="0907"/>
  <outline>
    <contour>
      <point x="517" y="132" type="line"/>
      <point x="788" y="-159" type="line"/>
      <point x="656" y="-250" type="line"/>
      <point x="338" y="98" type="line"/>
      <point x="433" y="32" type="line"/>
      <point x="208" y="32"/>
      <point x="120" y="110"/>
      <point x="120" y="184" type="curve" smooth="yes"/>
      <point x="120" y="248"/>
      <point x="174" y="305"/>
      <point x="252" y="305" type="curve" smooth="yes"/>
      <point x="323" y="305"/>
      <point x="399" y="267"/>
      <point x="503" y="156" type="curve"/>
    </contour>
    <contour>
      <point x="643" y="1167" type="line"/>
      <point x="849" y="1167" type="line"/>
      <point x="849" y="801" type="line"/>
      <point x="439" y="801" type="line"/>
      <point x="325" y="801"/>
      <point x="284" y="752"/>
      <point x="284" y="692" type="curve" smooth="yes"/>
      <point x="284" y="638"/>
      <point x="322" y="591"/>
      <point x="410" y="556" type="curve"/>
      <point x="324" y="560" type="line"/>
      <point x="416" y="600"/>
      <point x="511" y="627"/>
      <point x="627" y="627" type="curve" smooth="yes"/>
      <point x="815" y="627"/>
      <point x="946" y="519"/>
      <point x="946" y="360" type="curve" smooth="yes"/>
      <point x="946" y="178"/>
      <point x="780" y="38"/>
      <point x="458" y="38" type="curve"/>
      <point x="422" y="190" type="line"/>
      <point x="663" y="190"/>
      <point x="761" y="272"/>
      <point x="761" y="358" type="curve" smooth="yes"/>
      <point x="761" y="426"/>
      <point x="708" y="471"/>
      <point x="604" y="471" type="curve" smooth="yes"/>
      <point x="535" y="471"/>
      <point x="448" y="442"/>
      <point x="375" y="404" type="curve"/>
      <point x="368" y="404" type="line"/>
      <point x="175" y="495"/>
      <point x="100" y="606"/>
      <point x="100" y="723" type="curve" smooth="yes"/>
      <point x="100" y="843"/>
      <point x="192" y="949"/>
      <point x="404" y="949" type="curve" smooth="yes"/>
      <point x="695" y="949" type="line"/>
      <point x="643" y="897" type="line"/>
    </contour>
    <contour>
      <point x="1081" y="1136" type="line"/>
      <point x="-30" y="1136" type="line"/>
      <point x="-30" y="1283" type="line"/>
      <point x="1081" y="1283" type="line"/>
    </contour>
  </outline>
</glyph>
<glyph name="lvocalicdeva" format="1">
  <advance width="1569"/>
  <unicode hex="090C"/>
  <outline>
    <contour>
      <point x="913" y="674" type="curve"/>
      <point x="791" y="562" type="line"/>
      <point x="695" y="666"/>
      <point x="606" y="718"/>
      <point x="501" y="718" type="curve" smooth="yes"/>
      <point x="373" y="718"/>
      <point x="290" y="621"/>
      <point x="290" y="507" type="curve" smooth="yes"/>
      <point x="290" y="378"/>
      <point x="357" y="269"/>
      <point x="541" y="100" type="curve"/>
      <point x="394" y="12" type="line"/>
      <point x="205" y="186"/>
      <point x="98" y="355"/>
      <point x="98" y="548" type="curve" smooth="yes"/>
      <point x="98" y="745"/>
      <point x="239" y="897"/>
      <point x="450" y="897" type="curve" smooth="yes"/>
      <point x="628" y="897"/>
      <point x="760" y="827"/>
    </contour>
    <contour>
      <point x="-30" y="1136" type="line"/>
      <point x="-30" y="1283" type="line"/>
      <point x="1599" y="1283" type="line"/>
      <point x="1599" y="1136" type="line"/>
    </contour>
    <contour>
      <point x="1015" y="1169" type="line"/>
      <point x="1226" y="1169" type="line"/>
      <point x="1226" y="814" type="line"/>
      <point x="1015" y="814" type="line"/>
    </contour>
    <contour>
      <point x="1344" y="226" type="curve"/>
      <point x="1317" y="226" type="line"/>
      <point x="1176" y="226"/>
      <point x="1120" y="159"/>
      <point x="1120" y="98" type="curve" smooth="yes"/>
      <point x="1120" y="36"/>
      <point x="1164" y="-8"/>
      <point x="1257" y="-8" type="curve" smooth="yes"/>
      <point x="1314" y="-8"/>
      <point x="1358" y="2"/>
      <point x="1433" y="35" type="curve"/>
      <point x="1458" y="-106" type="line"/>
      <point x="1382" y="-136"/>
      <point x="1324" y="-146"/>
      <point x="1248" y="-146" type="curve" smooth="yes"/>
      <point x="1070" y="-146"/>
      <point x="943" y="-40"/>
      <point x="943" y="96" type="curve" smooth="yes"/>
      <point x="943" y="230"/>
      <point x="1058" y="339"/>
      <point x="1226" y="339" type="curve" smooth="yes"/>
      <point x="1253" y="339"/>
      <point x="1283" y="337"/>
      <point x="1308" y="332" type="curve"/>
      <point x="1166" y="286" type="line"/>
      <point x="1214" y="349"/>
      <point x="1266" y="437"/>
      <point x="1266" y="538" type="curve" smooth="yes"/>
      <point x="1266" y="641"/>
      <point x="1208" y="710"/>
      <point x="1104" y="710" type="curve" smooth="yes"/>
      <point x="980" y="710"/>
      <point x="860" y="585"/>
      <point x="812" y="318" type="curve"/>
      <point x="634" y="382" type="line"/>
      <point x="690" y="677"/>
      <point x="841" y="889"/>
      <point x="1090" y="889" type="curve" smooth="yes"/>
      <point x="1317" y="889"/>
      <point x="1453" y="734"/>
      <point x="1453" y="531" type="curve" smooth="yes"/>
      <point x="1453" y="412"/>
      <point x="1400" y="309"/>
    </contour>
    <contour>
      <point x="1074" y="1261" type="move" name="mark0"/>
    </contour>
  </outline>
</glyph>
<glyph name="ngadeva" format="1">
  <advance width="1203"/>
  <unicode hex="0919"/>
  <outline>
    <contour>
      <point x="1112" y="1136" type="line"/>
      <point x="1112" y="1283" type="line"/>
      <point x="1233" y="1283" type="line"/>
      <point x="1233" y="1136" type="line"/>
    </contour>
    <contour>
      <point x="1136" y="806" type="curve" smooth="yes"/>
      <point x="1225" y="806"/>
      <point x="1259" y="752"/>
      <point x="1259" y="691" type="curve" smooth="yes"/>
      <point x="1259" y="631"/>
      <point x="1221" y="577"/>
      <point x="1136" y="577" type="curve" smooth="yes"/>
      <point x="1049" y="577"/>
      <point x="1015" y="631"/>
      <point x="1015" y="691" type="curve" smooth="yes"/>
      <point x="1015" y="752"/>
      <point x="1050" y="806"/>
    </contour>
    <component base="ddadeva"/>
    <contour>
      <point x="524" y="33" type="move" name="btm"/>
    </contour>
    <contour>
      <point x="739" y="1283" type="move" name="top"/>
    </contour>
  </outline>
</glyph>
<glyph name="cadeva" format="1">
  <advance width="1398"/>
  <unicode hex="091A"/>
  <outline>
    <contour>
      <point x="79" y="727" type="line"/>
      <point x="79" y="896" type="line"/>
      <point x="807" y="896" type="line"/>
      <point x="807" y="727" type="line"/>
    </contour>
    <contour>
      <point x="1003" y="557" type="curve"/>
      <point x="1003" y="304" type="line"/>
      <point x="938" y="248"/>
      <point x="829" y="209"/>
      <point x="708" y="209" type="curve" smooth="yes"/>
      <point x="467" y="209"/>
      <point x="315" y="354"/>
      <point x="315" y="547" type="curve" smooth="yes"/>
      <point x="315" y="723"/>
      <point x="442" y="872"/>
      <point x="710" y="872" type="curve"/>
      <point x="746" y="729" type="line"/>
      <point x="590" y="729"/>
      <point x="505" y="632"/>
      <point x="505" y="531" type="curve" smooth="yes"/>
      <point x="505" y="441"/>
      <point x="581" y="378"/>
      <point x="689" y="378" type="curve" smooth="yes"/>
      <point x="809" y="378"/>
      <point x="929" y="442"/>
    </contour>
    <contour>
      <point x="-30" y="1136" type="line"/>
      <point x="-30" y="1283" type="line"/>
      <point x="1428" y="1283" type="line"/>
      <point x="1428" y="1136" type="line"/>
    </contour>
    <contour>
      <point x="967" y="1169" type="line"/>
      <point x="1174" y="1169" type="line"/>
      <point x="1174" y="0" type="line"/>
      <point x="967" y="0" type="line"/>
    </contour>
    <contour>
      <point x="967" y="1283" type="move" name="top"/>
    </contour>
  </outline>
</glyph>
<glyph name="jadeva" format="1">
  <advance width="1593"/>
  <unicode hex="091C"/>
  <outline>
    <contour>
      <point x="-30" y="1136" type="line"/>
      <point x="-30" y="1283" type="line"/>
      <point x="1623" y="1283" type="line"/>
      <point x="1623" y="1136" type="line"/>
    </contour>
    <contour>
      <point x="692" y="723" type="line"/>
      <point x="708" y="782" type="line"/>
      <point x="852" y="708"/>
      <point x="939" y="591"/>
      <point x="939" y="426" type="curve" smooth="yes"/>
      <point x="939" y="262"/>
      <point x="816" y="125"/>
      <point x="618" y="125" type="curve" smooth="yes"/>
      <point x="408" y="125"/>
      <point x="215" y="250"/>
      <point x="54" y="513" type="curve"/>
      <point x="157" y="656" type="line"/>
      <point x="328" y="390"/>
      <point x="464" y="307"/>
      <point x="586" y="307" type="curve" smooth="yes"/>
      <point x="688" y="307"/>
      <point x="754" y="373"/>
      <point x="754" y="466" type="curve" smooth="yes"/>
      <point x="754" y="580"/>
      <point x="651" y="695"/>
      <point x="466" y="745" type="curve"/>
      <point x="466" y="896" type="line"/>
      <point x="1195" y="896" type="line"/>
      <point x="1195" y="723" type="line"/>
    </contour>
    <contour>
      <point x="1161" y="1169" type="line"/>
      <point x="1368" y="1169" type="line"/>
      <point x="1368" y="0" type="line"/>
      <point x="1161" y="0" type="line"/>
    </contour>
    <contour>
      <point x="1161" y="1283" type="move" name="top"/>
    </contour>
  </outline>
</glyph>
<glyph name="jhadeva" format="1">
  <advance width="1630"/>
  <unicode hex="091D"/>
  <outline>
    <contour>
      <point x="1260" y="601" type="curve"/>
      <point x="1302" y="413" type="line"/>
      <point x="1230" y="370"/>
      <point x="1128" y="347"/>
      <point x="1050" y="347" type="curve" smooth="yes"/>
      <point x="954" y="347"/>
      <point x="880" y="358"/>
      <point x="820" y="374" type="curve"/>
      <point x="816" y="535" type="line"/>
      <point x="879" y="518"/>
      <point x="935" y="511"/>
      <point x="997" y="511" type="curve" smooth="yes"/>
      <point x="1085" y="511"/>
      <point x="1186" y="537"/>
    </contour>
    <contour>
      <point x="1198" y="1169" type="line"/>
      <point x="1404" y="1169" type="line"/>
      <point x="1404" y="0" type="line"/>
      <point x="1198" y="0" type="line"/>
    </contour>
    <contour>
      <point x="1660" y="1136" type="line"/>
      <point x="993" y="1136" type="line"/>
      <point x="993" y="1283" type="line"/>
      <point x="1660" y="1283" type="line"/>
    </contour>
    <component base="ideva"/>
    <contour>
      <point x="1198" y="1283" type="move" name="top"/>
    </contour>
  </outline>
</glyph>
<glyph name="nyadeva" format="1">
  <advance width="1725"/>
  <unicode hex="091E"/>
  <outline>
    <contour>
      <point x="869" y="668" type="line"/>
      <point x="941" y="652"/>
      <point x="1013" y="644"/>
      <point x="1085" y="644" type="curve" smooth="yes"/>
      <point x="1184" y="644"/>
      <point x="1289" y="666"/>
      <point x="1357" y="704" type="curve"/>
      <point x="1357" y="507" type="line"/>
      <point x="1304" y="487"/>
      <point x="1213" y="470"/>
      <point x="1118" y="470" type="curve" smooth="yes"/>
      <point x="1035" y="470"/>
      <point x="922" y="483"/>
      <point x="869" y="496" type="curve"/>
    </contour>
    <contour>
      <point x="956" y="541" type="curve" smooth="yes"/>
      <point x="956" y="327"/>
      <point x="801" y="182"/>
      <point x="600" y="182" type="curve" smooth="yes"/>
      <point x="411" y="182"/>
      <point x="251" y="258"/>
      <point x="53" y="445" type="curve"/>
      <point x="128" y="597" type="line"/>
      <point x="306" y="419"/>
      <point x="435" y="357"/>
      <point x="559" y="357" type="curve" smooth="yes"/>
      <point x="698" y="357"/>
      <point x="773" y="447"/>
      <point x="772" y="558" type="curve" smooth="yes"/>
      <point x="772" y="661"/>
      <point x="683" y="746"/>
      <point x="568" y="747" type="curve" smooth="yes"/>
      <point x="483" y="748"/>
      <point x="399" y="709"/>
      <point x="337" y="659" type="curve"/>
      <point x="258" y="810" type="line"/>
      <point x="330" y="865"/>
      <point x="432" y="915"/>
      <point x="560" y="916" type="curve" smooth="yes"/>
      <point x="785" y="916"/>
      <point x="956" y="764"/>
    </contour>
    <contour>
      <point x="-30" y="1136" type="line"/>
      <point x="-30" y="1283" type="line"/>
      <point x="1755" y="1283" type="line"/>
      <point x="1755" y="1136" type="line"/>
    </contour>
    <contour>
      <point x="1294" y="1169" type="line"/>
      <point x="1500" y="1169" type="line"/>
      <point x="1500" y="0" type="line"/>
      <point x="1294" y="0" type="line"/>
    </contour>
    <contour>
      <point x="1294" y="1283" type="move" name="top"/>
    </contour>
  </outline>
</glyph>
<glyph name="nnadeva" format="1">
  <advance width="1619"/>
  <unicode hex="0923"/>
  <outline>
    <contour>
      <point x="685" y="1167" type="line"/>
      <point x="892" y="1167" type="line"/>
      <point x="892" y="742" type="line"/>
      <point x="892" y="511"/>
      <point x="776" y="337"/>
      <point x="524" y="337" type="curve" smooth="yes"/>
      <point x="273" y="337"/>
      <point x="137" y="510"/>
      <point x="137" y="739" type="curve" smooth="yes"/>
      <point x="137" y="1167" type="line"/>
      <point x="343" y="1167" type="line"/>
      <point x="343" y="689" type="line"/>
      <point x="343" y="564"/>
      <point x="411" y="499"/>
      <point x="511" y="499" type="curve" smooth="yes"/>
      <point x="620" y="499"/>
      <point x="685" y="569"/>
      <point x="685" y="720" type="curve" smooth="yes"/>
    </contour>
    <contour>
      <point x="-30" y="1136" type="line"/>
      <point x="-30" y="1283" type="line"/>
      <point x="1649" y="1283" type="line"/>
      <point x="1649" y="1136" type="line"/>
    </contour>
    <contour>
      <point x="1187" y="1169" type="line"/>
      <point x="1394" y="1169" type="line"/>
      <point x="1394" y="0" type="line"/>
      <point x="1187" y="0" type="line"/>
    </contour>
    <contour>
      <point x="939" y="1283" type="move" name="top"/>
    </contour>
  </outline>
</glyph>
<glyph name="nadeva" format="1">
  <advance width="1236"/>
  <unicode hex="0928"/>
  <outline>
    <contour>
      <point x="829" y="807" type="line"/>
      <point x="829" y="634" type="line"/>
      <point x="331" y="634" type="line"/>
      <point x="381" y="685" type="line"/>
      <point x="381" y="437" type="line"/>
      <point x="381" y="378"/>
      <point x="353" y="346"/>
      <point x="311" y="346" type="curve" smooth="yes"/>
      <point x="283" y="346"/>
      <point x="256" y="360"/>
      <point x="225" y="391" type="curve" smooth="yes"/>
      <point x="173" y="444"/>
      <point x="112" y="588"/>
      <point x="112" y="699" type="curve" smooth="yes"/>
      <point x="112" y="767"/>
      <point x="149" y="807"/>
      <point x="231" y="807" type="curve" smooth="yes"/>
    </contour>
    <contour>
      <point x="-30" y="1136" type="line"/>
      <point x="-30" y="1283" type="line"/>
      <point x="1266" y="1283" type="line"/>
      <point x="1266" y="1136" type="line"/>
    </contour>
    <contour>
      <point x="805" y="1169" type="line"/>
      <point x="1012" y="1169" type="line"/>
      <point x="1012" y="0" type="line"/>
      <point x="805" y="0" type="line"/>
    </contour>
    <contour>
      <point x="805" y="1283" type="move" name="top"/>
    </contour>
  </outline>
</glyph>
<glyph name="phadeva" format="1">
  <advance width="1661"/>
  <unicode hex="092B"/>
  <outline>
    <contour>
      <point x="354" y="1208" type="line"/>
      <point x="354" y="754" type="line"/>
      <point x="354" y="622"/>
      <point x="421" y="559"/>
      <point x="538" y="559" type="curve" smooth="yes"/>
      <point x="625" y="559"/>
      <point x="710" y="589"/>
      <point x="789" y="651" type="curve"/>
      <point x="789" y="430" type="line"/>
      <point x="721" y="403"/>
      <point x="648" y="387"/>
      <point x="568" y="387" type="curve" smooth="yes"/>
      <point x="311" y="387"/>
      <point x="147" y="528"/>
      <point x="147" y="800" type="curve" smooth="yes"/>
      <point x="147" y="1208" type="line"/>
    </contour>
    <contour>
      <point x="-30" y="1136" type="line"/>
      <point x="-30" y="1283" type="line"/>
      <point x="1691" y="1283" type="line"/>
      <point x="1691" y="1136" type="line"/>
    </contour>
    <contour>
      <point x="758" y="1169" type="line"/>
      <point x="965" y="1169" type="line"/>
      <point x="965" y="0" type="line"/>
      <point x="758" y="0" type="line"/>
    </contour>
    <contour>
      <point x="930" y="468" type="curve"/>
      <point x="915" y="724" type="line"/>
      <point x="973" y="759"/>
      <point x="1067" y="798"/>
      <point x="1166" y="798" type="curve" smooth="yes"/>
      <point x="1397" y="798"/>
      <point x="1541" y="656"/>
      <point x="1541" y="458" type="curve" smooth="yes"/>
      <point x="1541" y="334"/>
      <point x="1491" y="216"/>
      <point x="1413" y="114" type="curve"/>
      <point x="1235" y="179" type="line"/>
      <point x="1308" y="279"/>
      <point x="1351" y="377"/>
      <point x="1351" y="469" type="curve" smooth="yes"/>
      <point x="1351" y="564"/>
      <point x="1294" y="624"/>
      <point x="1192" y="624" type="curve" smooth="yes"/>
      <point x="1101" y="624"/>
      <point x="1009" y="563"/>
    </contour>
    <contour>
      <point x="756" y="0" type="move" name="btm"/>
    </contour>
    <contour>
      <point x="758" y="1283" type="move" name="top"/>
    </contour>
  </outline>
</glyph>
<glyph name="ladeva" format="1">
  <advance width="1506"/>
  <unicode hex="0932"/>
  <outline>
    <contour>
      <point x="931" y="660" type="curve"/>
      <point x="805" y="544" type="line"/>
      <point x="700" y="664"/>
      <point x="598" y="715"/>
      <point x="499" y="715" type="curve" smooth="yes"/>
      <point x="364" y="715"/>
      <point x="287" y="620"/>
      <point x="287" y="507" type="curve" smooth="yes"/>
      <point x="287" y="379"/>
      <point x="357" y="270"/>
      <point x="541" y="101" type="curve"/>
      <point x="391" y="10" type="line"/>
      <point x="206" y="179"/>
      <point x="95" y="355"/>
      <point x="95" y="540" type="curve" smooth="yes"/>
      <point x="95" y="744"/>
      <point x="240" y="896"/>
      <point x="452" y="896" type="curve" smooth="yes"/>
      <point x="630" y="896"/>
      <point x="775" y="821"/>
    </contour>
    <contour>
      <point x="1075" y="1169" type="line"/>
      <point x="1281" y="1169" type="line"/>
      <point x="1281" y="0" type="line"/>
      <point x="1075" y="0" type="line"/>
    </contour>
    <contour>
      <point x="-30" y="1136" type="line"/>
      <point x="-30" y="1283" type="line"/>
      <point x="1536" y="1283" type="line"/>
      <point x="1536" y="1136" type="line"/>
    </contour>
    <contour>
      <point x="1144" y="956" type="line"/>
      <point x="1144" y="705" type="line"/>
      <point x="704" y="293" type="line"/>
      <point x="573" y="419" type="line"/>
    </contour>
    <contour>
      <point x="1075" y="1283" type="move" name="top"/>
    </contour>
  </outline>
</glyph>
<glyph name="aivowelsigndeva" format="1">
  <advance width="0"/>
  <unicode hex="0948"/>
  <outline>
    <contour>
      <point x="-687" y="1244" type="line"/>
      <point x="-1184" y="1605" type="line"/>
      <point x="-1048" y="1739" type="line"/>
      <point x="-409" y="1244" type="line"/>
    </contour>
    <contour>
      <point x="-419" y="1244" type="line"/>
      <point x="-653" y="1799" type="line"/>
      <point x="-467" y="1856" type="line"/>
      <point x="-224" y="1244" type="line"/>
    </contour>
    <contour>
      <point x="-434" y="1283" type="move" name="_top"/>
    </contour>
  </outline>
</glyph>
<glyph name="viramadeva" format="1">
  <advance width="-1"/>
  <unicode hex="094D"/>
  <outline>
    <contour>
      <point x="-420" y="-77" type="line"/>
      <point x="106" y="-328" type="line"/>
      <point x="36" y="-477" type="line"/>
      <point x="-489" y="-225" type="line"/>
    </contour>
    <contour>
      <point x="-433" y="0" type="move" name="_btm"/>
    </contour>
  </outline>
</glyph>
<glyph name="awvowelsigndevaKSH" format="1">
  <advance width="618"/>
  <unicode hex="094F"/>
  <outline>
    <contour>
      <point x="230" y="1227" type="line"/>
      <point x="230" y="1512" type="line"/>
      <point x="230" y="1577"/>
      <point x="201" y="1616"/>
      <point x="124" y="1616" type="curve" smooth="yes"/>
      <point x="61" y="1616"/>
      <point x="9" y="1581"/>
      <point x="-93" y="1581" type="curve" smooth="yes"/>
      <point x="-202" y="1581"/>
      <point x="-283" y="1629"/>
      <point x="-356" y="1713" type="curve"/>
      <point x="-288" y="1822" type="line"/>
      <point x="-212" y="1750"/>
      <point x="-156" y="1725"/>
      <point x="-99" y="1725" type="curve" smooth="yes"/>
      <point x="-16" y="1725"/>
      <point x="58" y="1767"/>
      <point x="172" y="1767" type="curve" smooth="yes"/>
      <point x="307" y="1767"/>
      <point x="393" y="1682"/>
      <point x="393" y="1535" type="curve" smooth="yes"/>
      <point x="393" y="1227" type="line"/>
    </contour>
    <contour>
      <point x="141" y="1194" type="line"/>
      <point x="80" y="1302" type="line"/>
      <point x="42" y="1369"/>
      <point x="1" y="1402"/>
      <point x="-75" y="1402" type="curve" smooth="yes"/>
      <point x="-148" y="1402"/>
      <point x="-221" y="1368"/>
      <point x="-327" y="1368" type="curve" smooth="yes"/>
      <point x="-443" y="1368"/>
      <point x="-541" y="1419"/>
      <point x="-624" y="1509" type="curve"/>
      <point x="-553" y="1614" type="line"/>
      <point x="-471" y="1537"/>
      <point x="-403" y="1510"/>
      <point x="-333" y="1510" type="curve" smooth="yes"/>
      <point x="-236" y="1510"/>
      <point x="-151" y="1554"/>
      <point x="-52" y="1554" type="curve" smooth="yes"/>
      <point x="96" y="1554"/>
      <point x="164" y="1499"/>
      <point x="239" y="1342" type="curve" smooth="yes"/>
      <point x="318" y="1194" type="line"/>
    </contour>
    <component base="aavowelsigndeva"/>
  </outline>
</glyph>
<glyph name="llvocalicdeva" format="1">
  <advance width="1560"/>
  <unicode hex="0961"/>
  <outline>
    <contour>
      <point x="905" y="674" type="curve"/>
      <point x="782" y="562" type="line"/>
      <point x="687" y="666"/>
      <point x="598" y="718"/>
      <point x="492" y="718" type="curve" smooth="yes"/>
      <point x="364" y="718"/>
      <point x="281" y="621"/>
      <point x="281" y="507" type="curve" smooth="yes"/>
      <point x="281" y="378"/>
      <point x="348" y="269"/>
      <point x="532" y="100" type="curve"/>
      <point x="385" y="12" type="line"/>
      <point x="196" y="186"/>
      <point x="88" y="355"/>
      <point x="88" y="548" type="curve" smooth="yes"/>
      <point x="88" y="745"/>
      <point x="230" y="897"/>
      <point x="441" y="897" type="curve" smooth="yes"/>
      <point x="620" y="897"/>
      <point x="752" y="827"/>
    </contour>
    <contour>
      <point x="1522" y="-346" type="line"/>
      <point x="1465" y="-369"/>
      <point x="1382" y="-389"/>
      <point x="1312" y="-389" type="curve" smooth="yes"/>
      <point x="1128" y="-389"/>
      <point x="1045" y="-290"/>
      <point x="1045" y="-188" type="curve" smooth="yes"/>
      <point x="1045" y="-69"/>
      <point x="1151" y="16"/>
      <point x="1334" y="16" type="curve"/>
      <point x="1359" y="-71" type="line"/>
      <point x="1261" y="-75"/>
      <point x="1209" y="-125"/>
      <point x="1209" y="-185" type="curve" smooth="yes"/>
      <point x="1209" y="-232"/>
      <point x="1246" y="-269"/>
      <point x="1329" y="-269" type="curve" smooth="yes"/>
      <point x="1381" y="-269"/>
      <point x="1430" y="-257"/>
      <point x="1496" y="-229" type="curve"/>
    </contour>
    <contour>
      <point x="1006" y="1169" type="line"/>
      <point x="1217" y="1169" type="line"/>
      <point x="1217" y="814" type="line"/>
      <point x="1006" y="814" type="line"/>
    </contour>
    <contour>
      <point x="-30" y="1136" type="line"/>
      <point x="-30" y="1283" type="line"/>
      <point x="1590" y="1283" type="line"/>
      <point x="1590" y="1136" type="line"/>
    </contour>
    <contour>
      <point x="1444" y="531" type="curve" smooth="yes"/>
      <point x="1444" y="412"/>
      <point x="1391" y="309"/>
      <point x="1335" y="226" type="curve"/>
      <point x="1279" y="226" type="line"/>
      <point x="1159" y="226"/>
      <point x="1112" y="173"/>
      <point x="1112" y="121" type="curve" smooth="yes"/>
      <point x="1112" y="68"/>
      <point x="1153" y="28"/>
      <point x="1241" y="28" type="curve" smooth="yes"/>
      <point x="1293" y="28"/>
      <point x="1336" y="35"/>
      <point x="1420" y="62" type="curve"/>
      <point x="1447" y="-66" type="line"/>
      <point x="1365" y="-87"/>
      <point x="1302" y="-98"/>
      <point x="1239" y="-98" type="curve" smooth="yes"/>
      <point x="1046" y="-98"/>
      <point x="930" y="3"/>
      <point x="930" y="132" type="curve" smooth="yes"/>
      <point x="930" y="247"/>
      <point x="1043" y="346"/>
      <point x="1211" y="346" type="curve" smooth="yes"/>
      <point x="1230" y="346"/>
      <point x="1283" y="343"/>
      <point x="1299" y="340" type="curve"/>
      <point x="1157" y="286" type="line"/>
      <point x="1205" y="349"/>
      <point x="1257" y="437"/>
      <point x="1257" y="538" type="curve" smooth="yes"/>
      <point x="1257" y="642"/>
      <point x="1199" y="710"/>
      <point x="1096" y="710" type="curve" smooth="yes"/>
      <point x="972" y="710"/>
      <point x="851" y="585"/>
      <point x="803" y="318" type="curve"/>
      <point x="625" y="382" type="line"/>
      <point x="682" y="677"/>
      <point x="832" y="889"/>
      <point x="1081" y="889" type="curve" smooth="yes"/>
      <point x="1309" y="889"/>
      <point x="1444" y="734"/>
    </contour>
  </outline>
</glyph>
<glyph name="twodeva" format="1">
  <advance width="989"/>
  <unicode hex="0968"/>
  <outline>
    <contour>
      <point x="329" y="465" type="line"/>
      <point x="496" y="536" type="line"/>
      <point x="851" y="-43" type="line"/>
      <point x="684" y="-126" type="line"/>
    </contour>
    <contour>
      <point x="296" y="389" type="curve" smooth="yes"/>
      <point x="183" y="389"/>
      <point x="142" y="430"/>
      <point x="142" y="496" type="curve" smooth="yes"/>
      <point x="142" y="582"/>
      <point x="240" y="712"/>
      <point x="333" y="712" type="curve" smooth="yes"/>
      <point x="396" y="712"/>
      <point x="431" y="672"/>
      <point x="485" y="569" type="curve"/>
      <point x="309" y="566" type="line"/>
      <point x="547" y="601"/>
      <point x="699" y="736"/>
      <point x="699" y="893" type="curve" smooth="yes"/>
      <point x="699" y="1020"/>
      <point x="599" y="1113"/>
      <point x="448" y="1113" type="curve" smooth="yes"/>
      <point x="341" y="1113"/>
      <point x="238" y="1083"/>
      <point x="151" y="1037" type="curve"/>
      <point x="91" y="1211" type="line"/>
      <point x="183" y="1251"/>
      <point x="301" y="1285"/>
      <point x="451" y="1285" type="curve" smooth="yes"/>
      <point x="736" y="1285"/>
      <point x="899" y="1117"/>
      <point x="899" y="890" type="curve" smooth="yes"/>
      <point x="899" y="594"/>
      <point x="584" y="389"/>
    </contour>
  </outline>
</glyph>
<glyph name="threedeva" format="1">
  <advance width="954"/>
  <unicode hex="0969"/>
  <outline>
    <contour>
      <point x="306" y="147" type="line"/>
      <point x="467" y="201" type="line"/>
      <point x="617" y="-98" type="line"/>
      <point x="457" y="-162" type="line"/>
    </contour>
    <contour>
      <point x="654" y="691" type="curve"/>
      <point x="483" y="761" type="line"/>
      <point x="564" y="820"/>
      <point x="602" y="888"/>
      <point x="602" y="969" type="curve" smooth="yes"/>
      <point x="602" y="1044"/>
      <point x="539" y="1118"/>
      <point x="421" y="1118" type="curve" smooth="yes"/>
      <point x="318" y="1118"/>
      <point x="221" y="1080"/>
      <point x="144" y="1035" type="curve"/>
      <point x="78" y="1201" type="line"/>
      <point x="177" y="1252"/>
      <point x="281" y="1286"/>
      <point x="430" y="1286" type="curve" smooth="yes"/>
      <point x="676" y="1286"/>
      <point x="790" y="1134"/>
      <point x="790" y="978" type="curve" smooth="yes"/>
      <point x="790" y="871"/>
      <point x="743" y="765"/>
    </contour>
    <contour>
      <point x="462" y="815" type="curve" smooth="yes"/>
      <point x="717" y="815"/>
      <point x="858" y="639"/>
      <point x="858" y="442" type="curve" smooth="yes"/>
      <point x="858" y="238"/>
      <point x="689" y="87"/>
      <point x="393" y="87" type="curve" smooth="yes"/>
      <point x="197" y="87"/>
      <point x="126" y="134"/>
      <point x="126" y="200" type="curve" smooth="yes"/>
      <point x="126" y="282"/>
      <point x="229" y="376"/>
      <point x="322" y="376" type="curve" smooth="yes"/>
      <point x="382" y="376"/>
      <point x="432" y="331"/>
      <point x="467" y="218" type="curve"/>
      <point x="247" y="267" type="line"/>
      <point x="308" y="256"/>
      <point x="365" y="256"/>
      <point x="399" y="256" type="curve" smooth="yes"/>
      <point x="569" y="256"/>
      <point x="670" y="345"/>
      <point x="670" y="450" type="curve" smooth="yes"/>
      <point x="670" y="554"/>
      <point x="598" y="639"/>
      <point x="460" y="639" type="curve" smooth="yes"/>
      <point x="380" y="639"/>
      <point x="307" y="624"/>
      <point x="237" y="598" type="curve"/>
      <point x="191" y="769" type="line"/>
      <point x="272" y="795"/>
      <point x="366" y="815"/>
    </contour>
  </outline>
</glyph>
<glyph name="fourdeva" format="1">
  <advance width="1105"/>
  <unicode hex="096A"/>
  <outline>
    <contour>
      <point x="20" y="1168" type="line"/>
      <point x="155" y="1297" type="line"/>
      <point x="653" y="810" type="line"/>
      <point x="867" y="606"/>
      <point x="926" y="481"/>
      <point x="926" y="357" type="curve" smooth="yes"/>
      <point x="926" y="209"/>
      <point x="800" y="64"/>
      <point x="584" y="64" type="curve" smooth="yes"/>
      <point x="365" y="64"/>
      <point x="222" y="210"/>
      <point x="222" y="378" type="curve" smooth="yes"/>
      <point x="222" y="490"/>
      <point x="263" y="599"/>
      <point x="465" y="796" type="curve" smooth="yes"/>
      <point x="967" y="1300" type="line"/>
      <point x="1112" y="1172" type="line"/>
      <point x="594" y="653" type="line"/>
      <point x="441" y="500"/>
      <point x="415" y="435"/>
      <point x="415" y="361" type="curve" smooth="yes"/>
      <point x="415" y="281"/>
      <point x="477" y="224"/>
      <point x="567" y="224" type="curve" smooth="yes"/>
      <point x="669" y="224"/>
      <point x="732" y="285"/>
      <point x="732" y="376" type="curve" smooth="yes"/>
      <point x="732" y="444"/>
      <point x="692" y="520"/>
      <point x="542" y="666" type="curve" smooth="yes"/>
    </contour>
  </outline>
</glyph>
<glyph name="sevendeva" format="1">
  <advance width="1230"/>
  <unicode hex="096D"/>
  <outline>
    <contour>
      <point x="1020" y="473" type="curve"/>
      <point x="1019" y="472"/>
      <point x="956" y="331"/>
      <point x="956" y="331" type="curve"/>
      <point x="607" y="405"/>
      <point x="465" y="569"/>
      <point x="465" y="759" type="curve" smooth="yes"/>
      <point x="465" y="919"/>
      <point x="568" y="1039"/>
      <point x="751" y="1039" type="curve" smooth="yes"/>
      <point x="964" y="1039"/>
      <point x="1143" y="863"/>
      <point x="1143" y="585" type="curve" smooth="yes"/>
      <point x="1143" y="313"/>
      <point x="952" y="92"/>
      <point x="665" y="92" type="curve" smooth="yes"/>
      <point x="355" y="92"/>
      <point x="123" y="323"/>
      <point x="123" y="749" type="curve" smooth="yes"/>
      <point x="123" y="929"/>
      <point x="164" y="1131"/>
      <point x="216" y="1271" type="curve"/>
      <point x="405" y="1214" type="line"/>
      <point x="343" y="1049"/>
      <point x="308" y="861"/>
      <point x="308" y="688" type="curve" smooth="yes"/>
      <point x="308" y="407"/>
      <point x="461" y="262"/>
      <point x="643" y="262" type="curve" smooth="yes"/>
      <point x="831" y="262"/>
      <point x="957" y="426"/>
      <point x="957" y="619" type="curve" smooth="yes"/>
      <point x="957" y="757"/>
      <point x="874" y="865"/>
      <point x="780" y="865" type="curve" smooth="yes"/>
      <point x="698" y="865"/>
      <point x="653" y="812"/>
      <point x="653" y="732" type="curve" smooth="yes"/>
      <point x="653" y="624"/>
      <point x="740" y="524"/>
    </contour>
  </outline>
</glyph>
<glyph name=".notdef" format="1">
  <advance width="1067"/>
  <outline>
    <contour>
      <point x="100" y="1283" type="line"/>
      <point x="967" y="1283" type="line"/>
      <point x="967" y="0" type="line"/>
      <point x="100" y="0" type="line"/>
    </contour>
    <contour>
      <point x="787" y="156" type="line"/>
      <point x="787" y="1136" type="line"/>
      <point x="285" y="1136" type="line"/>
      <point x="285" y="156" type="line"/>
    </contour>
  </outline>
</glyph>
<glyph name="dabadeva" format="1">
  <advance width="1134"/>
  <outline>
    <contour>
      <point x="665" y="-112" type="line"/>
      <point x="569" y="-189" type="line"/>
      <point x="260" y="174" type="line"/>
      <point x="355" y="250" type="line"/>
    </contour>
    <contour>
      <point x="-30" y="1136" type="line"/>
      <point x="-30" y="1283" type="line"/>
      <point x="1169" y="1283" type="line"/>
      <point x="1169" y="1136" type="line"/>
    </contour>
    <contour>
      <point x="691" y="189" type="line"/>
      <point x="852" y="247" type="line"/>
      <point x="1080" y="-204" type="line"/>
      <point x="922" y="-271" type="line"/>
    </contour>
    <contour>
      <point x="619" y="112" type="curve" smooth="yes"/>
      <point x="303" y="112"/>
      <point x="106" y="294"/>
      <point x="106" y="539" type="curve" smooth="yes"/>
      <point x="106" y="736"/>
      <point x="250" y="896"/>
      <point x="555" y="896" type="curve" smooth="yes"/>
      <point x="757" y="896" type="line"/>
      <point x="704" y="846" type="line"/>
      <point x="704" y="1177" type="line"/>
      <point x="911" y="1177" type="line"/>
      <point x="911" y="741" type="line"/>
      <point x="613" y="741" type="line"/>
      <point x="387" y="741"/>
      <point x="299" y="640"/>
      <point x="299" y="513" type="curve" smooth="yes"/>
      <point x="299" y="382"/>
      <point x="408" y="270"/>
      <point x="589" y="270" type="curve" smooth="yes"/>
      <point x="664" y="270"/>
      <point x="710" y="276"/>
      <point x="808" y="306" type="curve"/>
      <point x="674" y="224" type="line"/>
      <point x="644" y="273"/>
      <point x="632" y="312"/>
      <point x="632" y="351" type="curve" smooth="yes"/>
      <point x="632" y="396"/>
      <point x="664" y="446"/>
      <point x="763" y="446" type="curve" smooth="yes"/>
      <point x="902" y="446"/>
      <point x="1012" y="381"/>
      <point x="1012" y="303" type="curve" smooth="yes"/>
      <point x="1012" y="211"/>
      <point x="871" y="112"/>
    </contour>
    <contour>
      <point x="422" y="210" type="line"/>
      <point x="302" y="151"/>
      <point x="255" y="76"/>
      <point x="256" y="-4" type="curve" smooth="yes"/>
      <point x="257" y="-85"/>
      <point x="325" y="-149"/>
      <point x="422" y="-149" type="curve" smooth="yes"/>
      <point x="569" y="-149"/>
      <point x="704" y="-6"/>
      <point x="715" y="203" type="curve"/>
      <point x="838" y="-25" type="line"/>
      <point x="756" y="-191"/>
      <point x="605" y="-297"/>
      <point x="427" y="-297" type="curve" smooth="yes"/>
      <point x="216" y="-297"/>
      <point x="90" y="-149"/>
      <point x="90" y="3" type="curve" smooth="yes"/>
      <point x="90" y="127"/>
      <point x="153" y="241"/>
      <point x="302" y="327" type="curve"/>
    </contour>
    <contour>
      <point x="641" y="-334" type="move" name="btm"/>
    </contour>
    <contour>
      <point x="672" y="1283" type="move" name="top"/>
    </contour>
  </outline>
</glyph>
<glyph name="dadhayadeva" format="1">
  <advance width="2104"/>
  <outline>
    <contour>
      <point x="1677" y="1169" type="line"/>
      <point x="1887" y="1169" type="line"/>
      <point x="1887" y="-353" type="line"/>
      <point x="1677" y="-353" type="line"/>
    </contour>
    <contour>
      <point x="1146" y="211" type="line"/>
      <point x="1210" y="57"/>
      <point x="1308" y="-2"/>
      <point x="1416" y="-2" type="curve" smooth="yes"/>
      <point x="1520" y="-2"/>
      <point x="1644" y="56"/>
      <point x="1726" y="194" type="curve"/>
      <point x="1726" y="-82" type="line"/>
      <point x="1652" y="-143"/>
      <point x="1561" y="-181"/>
      <point x="1463" y="-181" type="curve" smooth="yes"/>
      <point x="1297" y="-181"/>
      <point x="1101" y="-102"/>
      <point x="997" y="186" type="curve"/>
    </contour>
    <contour>
      <point x="-30" y="1136" type="line"/>
      <point x="-30" y="1283" type="line"/>
      <point x="2134" y="1283" type="line"/>
      <point x="2134" y="1136" type="line"/>
    </contour>
    <contour>
      <point x="536" y="92" type="line"/>
      <point x="482" y="60"/>
      <point x="424" y="42"/>
      <point x="320" y="42" type="curve" smooth="yes"/>
      <point x="136" y="42"/>
      <point x="8" y="160"/>
      <point x="8" y="327" type="curve" smooth="yes"/>
      <point x="8" y="422"/>
      <point x="49" y="514"/>
      <point x="127" y="592" type="curve"/>
      <point x="263" y="496" type="line"/>
      <point x="213" y="448"/>
      <point x="184" y="383"/>
      <point x="184" y="320" type="curve" smooth="yes"/>
      <point x="184" y="242"/>
      <point x="241" y="185"/>
      <point x="343" y="185" type="curve" smooth="yes"/>
      <point x="431" y="185"/>
      <point x="497" y="205"/>
      <point x="573" y="253" type="curve"/>
    </contour>
    <contour>
      <point x="934" y="112" type="curve" smooth="yes"/>
      <point x="618" y="112"/>
      <point x="421" y="294"/>
      <point x="421" y="539" type="curve" smooth="yes"/>
      <point x="421" y="736"/>
      <point x="564" y="896"/>
      <point x="870" y="896" type="curve" smooth="yes"/>
      <point x="1072" y="896" type="line"/>
      <point x="1019" y="846" type="line"/>
      <point x="1019" y="1177" type="line"/>
      <point x="1226" y="1177" type="line"/>
      <point x="1226" y="741" type="line"/>
      <point x="928" y="741" type="line"/>
      <point x="702" y="741"/>
      <point x="615" y="639"/>
      <point x="615" y="513" type="curve" smooth="yes"/>
      <point x="615" y="382"/>
      <point x="723" y="270"/>
      <point x="904" y="270" type="curve" smooth="yes"/>
      <point x="979" y="270"/>
      <point x="1025" y="276"/>
      <point x="1123" y="306" type="curve"/>
      <point x="991" y="225" type="line"/>
      <point x="961" y="274"/>
      <point x="947" y="312"/>
      <point x="947" y="351" type="curve" smooth="yes"/>
      <point x="947" y="396"/>
      <point x="979" y="446"/>
      <point x="1078" y="446" type="curve" smooth="yes"/>
      <point x="1217" y="446"/>
      <point x="1327" y="381"/>
      <point x="1327" y="303" type="curve" smooth="yes"/>
      <point x="1327" y="211"/>
      <point x="1186" y="112"/>
    </contour>
    <contour>
      <point x="756" y="187" type="line"/>
      <point x="632" y="132"/>
      <point x="596" y="48"/>
      <point x="596" y="-13" type="curve" smooth="yes"/>
      <point x="595" y="-88"/>
      <point x="644" y="-138"/>
      <point x="734" y="-138" type="curve" smooth="yes"/>
      <point x="878" y="-138"/>
      <point x="1007" y="-2"/>
      <point x="1023" y="209" type="curve"/>
      <point x="1146" y="-19" type="line"/>
      <point x="1064" y="-185"/>
      <point x="919" y="-293"/>
      <point x="739" y="-293" type="curve" smooth="yes"/>
      <point x="548" y="-293"/>
      <point x="430" y="-167"/>
      <point x="430" y="-15" type="curve" smooth="yes"/>
      <point x="430" y="87"/>
      <point x="468" y="206"/>
      <point x="634" y="301" type="curve"/>
    </contour>
    <contour>
      <point x="1677" y="-353" type="move" name="btm"/>
    </contour>
    <contour>
      <point x="1677" y="1283" type="move" name="top"/>
    </contour>
  </outline>
</glyph>
<glyph name="damadeva" format="1">
  <advance width="1574"/>
  <outline>
    <contour>
      <point x="1145" y="1169" type="line"/>
      <point x="1352" y="1169" type="line"/>
      <point x="1352" y="-25" type="line"/>
      <point x="1145" y="-25" type="line"/>
    </contour>
    <contour>
      <point x="1198" y="395" type="line"/>
      <point x="1198" y="221" type="line"/>
      <point x="823" y="221" type="line"/>
      <point x="862" y="255" type="line"/>
      <point x="862" y="116" type="line"/>
      <point x="862" y="60"/>
      <point x="840" y="24"/>
      <point x="793" y="24" type="curve" smooth="yes"/>
      <point x="756" y="24"/>
      <point x="708" y="53"/>
      <point x="662" y="100" type="curve" smooth="yes"/>
      <point x="595" y="167"/>
      <point x="547" y="252"/>
      <point x="547" y="304" type="curve" smooth="yes"/>
      <point x="547" y="363"/>
      <point x="589" y="395"/>
      <point x="650" y="395" type="curve" smooth="yes"/>
    </contour>
    <contour>
      <point x="1604" y="1136" type="line"/>
      <point x="-30" y="1136" type="line"/>
      <point x="-30" y="1283" type="line"/>
      <point x="1604" y="1283" type="line"/>
    </contour>
    <contour>
      <point x="606" y="1167" type="line"/>
      <point x="812" y="1167" type="line"/>
      <point x="812" y="805" type="line"/>
      <point x="443" y="805" type="line"/>
      <point x="332" y="805"/>
      <point x="295" y="765"/>
      <point x="295" y="708" type="curve" smooth="yes"/>
      <point x="295" y="648"/>
      <point x="346" y="618"/>
      <point x="429" y="618" type="curve" smooth="yes"/>
      <point x="540" y="618" type="line"/>
      <point x="765" y="618"/>
      <point x="858" y="501"/>
      <point x="859" y="361" type="curve" smooth="yes"/>
      <point x="860" y="294" type="line"/>
      <point x="668" y="290" type="line"/>
      <point x="668" y="349" type="line"/>
      <point x="668" y="419"/>
      <point x="624" y="461"/>
      <point x="528" y="461" type="curve" smooth="yes"/>
      <point x="439" y="461" type="line"/>
      <point x="224" y="461"/>
      <point x="92" y="577"/>
      <point x="92" y="729" type="curve" smooth="yes"/>
      <point x="92" y="857"/>
      <point x="175" y="957"/>
      <point x="387" y="957" type="curve" smooth="yes"/>
      <point x="658" y="957" type="line"/>
      <point x="606" y="906" type="line"/>
    </contour>
    <contour>
      <point x="1145" y="-25" type="move" name="btm"/>
    </contour>
    <contour>
      <point x="1145" y="1283" type="move" name="top"/>
    </contour>
  </outline>
</glyph>
<glyph name="dayadeva" format="1">
  <advance width="1479"/>
  <outline>
    <contour>
      <point x="503" y="1181" type="line"/>
      <point x="710" y="1181" type="line"/>
      <point x="710" y="878" type="line"/>
      <point x="503" y="878" type="line"/>
    </contour>
    <contour>
      <point x="441" y="412" type="line"/>
      <point x="217" y="457"/>
      <point x="85" y="567"/>
      <point x="85" y="723" type="curve" smooth="yes"/>
      <point x="85" y="849"/>
      <point x="180" y="949"/>
      <point x="397" y="949" type="curve" smooth="yes"/>
      <point x="430" y="949"/>
      <point x="684" y="949"/>
      <point x="710" y="949" type="curve"/>
      <point x="710" y="806" type="line"/>
      <point x="692" y="806"/>
      <point x="475" y="806"/>
      <point x="462" y="806" type="curve"/>
      <point x="332" y="806"/>
      <point x="285" y="758"/>
      <point x="285" y="695" type="curve" smooth="yes"/>
      <point x="285" y="620"/>
      <point x="376" y="559"/>
      <point x="558" y="548" type="curve"/>
    </contour>
    <contour>
      <point x="1048" y="1168" type="line"/>
      <point x="1255" y="1168" type="line"/>
      <point x="1255" y="-25" type="line"/>
      <point x="1048" y="-25" type="line"/>
    </contour>
    <contour>
      <point x="1509" y="1136" type="line"/>
      <point x="-30" y="1136" type="line"/>
      <point x="-30" y="1283" type="line"/>
      <point x="1509" y="1283" type="line"/>
    </contour>
    <contour>
      <point x="828" y="480" type="line"/>
      <point x="817" y="480" type="line"/>
      <point x="612" y="480"/>
      <point x="538" y="410"/>
      <point x="538" y="336" type="curve" smooth="yes"/>
      <point x="538" y="267"/>
      <point x="602" y="212"/>
      <point x="714" y="212" type="curve" smooth="yes"/>
      <point x="861" y="212"/>
      <point x="1007" y="281"/>
      <point x="1093" y="427" type="curve"/>
      <point x="1093" y="160" type="line"/>
      <point x="1000" y="96"/>
      <point x="878" y="52"/>
      <point x="725" y="52" type="curve" smooth="yes"/>
      <point x="479" y="52"/>
      <point x="340" y="192"/>
      <point x="340" y="361" type="curve" smooth="yes"/>
      <point x="340" y="504"/>
      <point x="462" y="629"/>
      <point x="769" y="629" type="curve" smooth="yes"/>
      <point x="780" y="629" type="line"/>
    </contour>
    <contour>
      <point x="1048" y="-25" type="move" name="btm"/>
    </contour>
    <contour>
      <point x="1048" y="1283" type="move" name="top"/>
    </contour>
  </outline>
</glyph>
<glyph name="ddaddadeva" format="1">
  <advance width="1187"/>
  <outline>
    <contour>
      <point x="697" y="261" type="line"/>
      <point x="901" y="261" type="line"/>
      <point x="901" y="-20" type="line"/>
      <point x="480" y="-20" type="line"/>
      <point x="396" y="-20"/>
      <point x="362" y="-56"/>
      <point x="362" y="-99" type="curve" smooth="yes"/>
      <point x="362" y="-143"/>
      <point x="396" y="-176"/>
      <point x="472" y="-204" type="curve"/>
      <point x="393" y="-195" type="line"/>
      <point x="484" y="-154"/>
      <point x="581" y="-127"/>
      <point x="695" y="-127" type="curve" smooth="yes"/>
      <point x="914" y="-127"/>
      <point x="1027" y="-222"/>
      <point x="1027" y="-357" type="curve" smooth="yes"/>
      <point x="1027" y="-492"/>
      <point x="915" y="-599"/>
      <point x="651" y="-599" type="curve" smooth="yes"/>
      <point x="482" y="-599"/>
      <point x="315" y="-564"/>
      <point x="124" y="-472" type="curve"/>
      <point x="162" y="-333" type="line"/>
      <point x="339" y="-429"/>
      <point x="494" y="-462"/>
      <point x="621" y="-462" type="curve" smooth="yes"/>
      <point x="787" y="-462"/>
      <point x="850" y="-408"/>
      <point x="850" y="-356" type="curve" smooth="yes"/>
      <point x="850" y="-306"/>
      <point x="800" y="-265"/>
      <point x="684" y="-265" type="curve" smooth="yes"/>
      <point x="603" y="-265"/>
      <point x="509" y="-294"/>
      <point x="442" y="-327" type="curve"/>
      <point x="429" y="-327" type="line"/>
      <point x="261" y="-256"/>
      <point x="190" y="-173"/>
      <point x="190" y="-71" type="curve" smooth="yes"/>
      <point x="190" y="24"/>
      <point x="268" y="110"/>
      <point x="452" y="110" type="curve" smooth="yes"/>
      <point x="747" y="110" type="line"/>
      <point x="697" y="59" type="line"/>
    </contour>
    <contour>
      <point x="741" y="1167" type="line"/>
      <point x="947" y="1167" type="line"/>
      <point x="947" y="836" type="line"/>
      <point x="496" y="836" type="line"/>
      <point x="379" y="836"/>
      <point x="339" y="795"/>
      <point x="339" y="744" type="curve" smooth="yes"/>
      <point x="339" y="691"/>
      <point x="377" y="652"/>
      <point x="463" y="628" type="curve"/>
      <point x="376" y="636" type="line"/>
      <point x="472" y="682"/>
      <point x="577" y="708"/>
      <point x="700" y="708" type="curve" smooth="yes"/>
      <point x="927" y="708"/>
      <point x="1056" y="602"/>
      <point x="1056" y="454" type="curve" smooth="yes"/>
      <point x="1056" y="307"/>
      <point x="925" y="190"/>
      <point x="641" y="190" type="curve" smooth="yes"/>
      <point x="464" y="190"/>
      <point x="293" y="230"/>
      <point x="101" y="331" type="curve"/>
      <point x="139" y="483" type="line"/>
      <point x="318" y="379"/>
      <point x="482" y="339"/>
      <point x="620" y="339" type="curve" smooth="yes"/>
      <point x="800" y="339"/>
      <point x="869" y="395"/>
      <point x="869" y="456" type="curve" smooth="yes"/>
      <point x="869" y="515"/>
      <point x="812" y="563"/>
      <point x="688" y="563" type="curve" smooth="yes"/>
      <point x="594" y="563"/>
      <point x="499" y="533"/>
      <point x="426" y="494" type="curve"/>
      <point x="414" y="494" type="line"/>
      <point x="243" y="562"/>
      <point x="156" y="665"/>
      <point x="156" y="773" type="curve" smooth="yes"/>
      <point x="156" y="873"/>
      <point x="238" y="977"/>
      <point x="460" y="977" type="curve" smooth="yes"/>
      <point x="793" y="977" type="line"/>
      <point x="741" y="923" type="line"/>
    </contour>
    <contour>
      <point x="1217" y="1136" type="line"/>
      <point x="-30" y="1136" type="line"/>
      <point x="-30" y="1283" type="line"/>
      <point x="1217" y="1283" type="line"/>
    </contour>
    <contour>
      <point x="515" y="-576" type="move" name="btm"/>
    </contour>
    <contour>
      <point x="726" y="1283" type="move" name="top"/>
    </contour>
  </outline>
</glyph>
<glyph name="fivedevaNEP" format="1">
  <advance width="993"/>
  <outline>
    <contour>
      <point x="270" y="150" type="line"/>
      <point x="422" y="199" type="line"/>
      <point x="580" y="-101" type="line"/>
      <point x="429" y="-161" type="line"/>
    </contour>
    <contour>
      <point x="331" y="270" type="curve" smooth="yes"/>
      <point x="496" y="271"/>
      <point x="627" y="388"/>
      <point x="654" y="640" type="curve" smooth="yes"/>
      <point x="719" y="1245" type="line"/>
      <point x="909" y="1245" type="line"/>
      <point x="837" y="634" type="line"/>
      <point x="798" y="304"/>
      <point x="617" y="105"/>
      <point x="282" y="105" type="curve" smooth="yes"/>
      <point x="148" y="105"/>
      <point x="91" y="150"/>
      <point x="91" y="209" type="curve" smooth="yes"/>
      <point x="91" y="286"/>
      <point x="180" y="389"/>
      <point x="268" y="389" type="curve" smooth="yes"/>
      <point x="328" y="389"/>
      <point x="363" y="349"/>
      <point x="417" y="221" type="curve"/>
      <point x="196" y="258" type="line"/>
      <point x="233" y="252"/>
      <point x="306" y="270"/>
    </contour>
    <contour>
      <point x="748" y="785" type="curve"/>
      <point x="776" y="600" type="line"/>
      <point x="700" y="562"/>
      <point x="603" y="532"/>
      <point x="498" y="532" type="curve" smooth="yes"/>
      <point x="265" y="532"/>
      <point x="121" y="659"/>
      <point x="121" y="883" type="curve" smooth="yes"/>
      <point x="121" y="1245" type="line"/>
      <point x="307" y="1245" type="line"/>
      <point x="307" y="869" type="line"/>
      <point x="307" y="756"/>
      <point x="376" y="700"/>
      <point x="486" y="700" type="curve" smooth="yes"/>
      <point x="588" y="700"/>
      <point x="667" y="729"/>
    </contour>
  </outline>
</glyph>
<glyph name="haladeva" format="1">
  <advance width="1546"/>
  <outline>
    <contour>
      <point x="1221" y="335" type="line"/>
      <point x="1221" y="160" type="line"/>
      <point x="963" y="-58" type="line"/>
      <point x="863" y="40" type="line"/>
    </contour>
    <contour>
      <point x="1094" y="157" type="curve"/>
      <point x="1004" y="78" type="line"/>
      <point x="944" y="151"/>
      <point x="900" y="178"/>
      <point x="838" y="178" type="curve" smooth="yes"/>
      <point x="770" y="178"/>
      <point x="726" y="132"/>
      <point x="725" y="76" type="curve" smooth="yes"/>
      <point x="725" y="13"/>
      <point x="759" y="-34"/>
      <point x="843" y="-110" type="curve"/>
      <point x="738" y="-171" type="line"/>
      <point x="640" y="-85"/>
      <point x="584" y="4"/>
      <point x="584" y="104" type="curve" smooth="yes"/>
      <point x="584" y="214"/>
      <point x="666" y="307"/>
      <point x="809" y="305" type="curve" smooth="yes"/>
      <point x="922" y="303"/>
      <point x="995" y="262"/>
    </contour>
    <contour>
      <point x="1576" y="1136" type="line"/>
      <point x="-30" y="1136" type="line"/>
      <point x="-30" y="1283" type="line"/>
      <point x="1576" y="1283" type="line"/>
    </contour>
    <contour>
      <point x="1112" y="1162" type="line"/>
      <point x="1318" y="1162" type="line"/>
      <point x="1318" y="794" type="line"/>
      <point x="458" y="794" type="line"/>
      <point x="336" y="794"/>
      <point x="295" y="745"/>
      <point x="295" y="679" type="curve" smooth="yes"/>
      <point x="295" y="614"/>
      <point x="349" y="561"/>
      <point x="446" y="532" type="curve"/>
      <point x="318" y="414" type="line"/>
      <point x="165" y="494"/>
      <point x="95" y="595"/>
      <point x="95" y="711" type="curve" smooth="yes"/>
      <point x="95" y="839"/>
      <point x="186" y="943"/>
      <point x="397" y="943" type="curve" smooth="yes"/>
      <point x="1151" y="943" type="line"/>
      <point x="1112" y="899" type="line"/>
    </contour>
    <contour>
      <point x="763" y="453" type="curve" smooth="yes"/>
      <point x="466" y="453"/>
      <point x="356" y="308"/>
      <point x="356" y="149" type="curve" smooth="yes"/>
      <point x="356" y="7"/>
      <point x="445" y="-131"/>
      <point x="695" y="-313" type="curve"/>
      <point x="570" y="-420" type="line"/>
      <point x="291" y="-220"/>
      <point x="174" y="-30"/>
      <point x="174" y="193" type="curve" smooth="yes"/>
      <point x="174" y="392"/>
      <point x="322" y="620"/>
      <point x="756" y="620" type="curve" smooth="yes"/>
      <point x="1183" y="620"/>
      <point x="1382" y="432"/>
      <point x="1382" y="165" type="curve" smooth="yes"/>
      <point x="1382" y="-254" type="line"/>
      <point x="1195" y="-254" type="line"/>
      <point x="1195" y="172" type="line"/>
      <point x="1195" y="331"/>
      <point x="1081" y="453"/>
    </contour>
    <contour>
      <point x="1195" y="-254" type="move" name="btm"/>
    </contour>
    <contour>
      <point x="1112" y="1283" type="move" name="top"/>
    </contour>
  </outline>
</glyph>
<glyph name="haradeva" format="1">
  <advance width="1219"/>
  <outline>
    <contour>
      <point x="899" y="447" type="line"/>
      <point x="673" y="81" type="line"/>
      <point x="529" y="150" type="line"/>
      <point x="749" y="515" type="line"/>
    </contour>
    <contour>
      <point x="796" y="1162" type="line"/>
      <point x="1003" y="1162" type="line"/>
      <point x="1003" y="794" type="line"/>
      <point x="458" y="794" type="line"/>
      <point x="342" y="794"/>
      <point x="296" y="746"/>
      <point x="296" y="680" type="curve" smooth="yes"/>
      <point x="296" y="615"/>
      <point x="350" y="564"/>
      <point x="449" y="533" type="curve"/>
      <point x="321" y="411" type="line"/>
      <point x="171" y="491"/>
      <point x="98" y="592"/>
      <point x="98" y="714" type="curve" smooth="yes"/>
      <point x="98" y="842"/>
      <point x="191" y="943"/>
      <point x="401" y="943" type="curve" smooth="yes"/>
      <point x="835" y="943" type="line"/>
      <point x="796" y="899" type="line"/>
    </contour>
    <contour>
      <point x="651" y="604" type="curve" smooth="yes"/>
      <point x="940" y="604"/>
      <point x="1097" y="462"/>
      <point x="1097" y="286" type="curve" smooth="yes"/>
      <point x="1097" y="207"/>
      <point x="1077" y="146"/>
      <point x="1042" y="80" type="curve"/>
      <point x="874" y="117" type="line"/>
      <point x="905" y="164"/>
      <point x="920" y="220"/>
      <point x="920" y="277" type="curve" smooth="yes"/>
      <point x="920" y="367"/>
      <point x="848" y="450"/>
      <point x="671" y="451" type="curve" smooth="yes"/>
      <point x="486" y="452"/>
      <point x="382" y="331"/>
      <point x="382" y="204" type="curve" smooth="yes"/>
      <point x="382" y="41"/>
      <point x="516" y="-78"/>
      <point x="952" y="-129" type="curve"/>
      <point x="897" y="-281" type="line"/>
      <point x="416" y="-228"/>
      <point x="188" y="-45"/>
      <point x="188" y="227" type="curve" smooth="yes"/>
      <point x="188" y="433"/>
      <point x="351" y="604"/>
    </contour>
    <contour>
      <point x="1249" y="1136" type="line"/>
      <point x="-30" y="1136" type="line"/>
      <point x="-30" y="1283" type="line"/>
      <point x="1249" y="1283" type="line"/>
    </contour>
    <contour>
      <point x="792" y="1283" type="move" name="top"/>
    </contour>
  </outline>
</glyph>
<glyph name="haudeva" format="1">
  <advance width="1178"/>
  <outline>
    <contour>
      <point x="747" y="1162" type="line"/>
      <point x="954" y="1162" type="line"/>
      <point x="954" y="794" type="line"/>
      <point x="451" y="794" type="line"/>
      <point x="332" y="794"/>
      <point x="289" y="745"/>
      <point x="289" y="678" type="curve" smooth="yes"/>
      <point x="289" y="614"/>
      <point x="348" y="561"/>
      <point x="445" y="532" type="curve"/>
      <point x="319" y="409" type="line"/>
      <point x="169" y="487"/>
      <point x="92" y="589"/>
      <point x="92" y="711" type="curve" smooth="yes"/>
      <point x="92" y="846"/>
      <point x="186" y="943"/>
      <point x="397" y="943" type="curve" smooth="yes"/>
      <point x="786" y="943" type="line"/>
      <point x="747" y="899" type="line"/>
    </contour>
    <contour>
      <point x="1208" y="1136" type="line"/>
      <point x="-30" y="1136" type="line"/>
      <point x="-30" y="1283" type="line"/>
      <point x="1208" y="1283" type="line"/>
    </contour>
    <contour>
      <point x="383" y="204" type="curve" smooth="yes"/>
      <point x="383" y="43"/>
      <point x="526" y="-58"/>
      <point x="810" y="-108" type="curve"/>
      <point x="757" y="-258" type="line"/>
      <point x="418" y="-201"/>
      <point x="187" y="-46"/>
      <point x="187" y="229" type="curve" smooth="yes"/>
      <point x="187" y="424"/>
      <point x="339" y="600"/>
      <point x="627" y="600" type="curve" smooth="yes"/>
      <point x="899" y="600"/>
      <point x="1050" y="461"/>
      <point x="1050" y="286" type="curve" smooth="yes"/>
      <point x="1050" y="207"/>
      <point x="1029" y="144"/>
      <point x="994" y="80" type="curve"/>
      <point x="822" y="117" type="line"/>
      <point x="852" y="166"/>
      <point x="867" y="216"/>
      <point x="867" y="272" type="curve" smooth="yes"/>
      <point x="867" y="352"/>
      <point x="794" y="434"/>
      <point x="639" y="435" type="curve" smooth="yes"/>
      <point x="482" y="435"/>
      <point x="383" y="321"/>
    </contour>
    <component base="uvowelsigndeva" xOffset="1072" yOffset="-128"/>
  </outline>
</glyph>
<glyph name="havadeva" format="1">
  <advance width="1485"/>
  <outline>
    <contour>
      <point x="753" y="620" type="curve" smooth="yes"/>
      <point x="1150" y="620"/>
      <point x="1329" y="417"/>
      <point x="1329" y="165" type="curve" smooth="yes"/>
      <point x="1329" y="-254" type="line"/>
      <point x="1142" y="-254" type="line"/>
      <point x="1142" y="172" type="line"/>
      <point x="1142" y="317"/>
      <point x="1059" y="453"/>
      <point x="763" y="453" type="curve" smooth="yes"/>
      <point x="466" y="453"/>
      <point x="356" y="308"/>
      <point x="356" y="149" type="curve" smooth="yes"/>
      <point x="356" y="7"/>
      <point x="443" y="-128"/>
      <point x="695" y="-313" type="curve"/>
      <point x="570" y="-420" type="line"/>
      <point x="290" y="-219"/>
      <point x="174" y="-30"/>
      <point x="174" y="193" type="curve" smooth="yes"/>
      <point x="174" y="392"/>
      <point x="324" y="620"/>
    </contour>
    <contour>
      <point x="1515" y="1136" type="line"/>
      <point x="-30" y="1136" type="line"/>
      <point x="-30" y="1283" type="line"/>
      <point x="1515" y="1283" type="line"/>
    </contour>
    <contour>
      <point x="1059" y="1162" type="line"/>
      <point x="1266" y="1162" type="line"/>
      <point x="1266" y="794" type="line"/>
      <point x="458" y="794" type="line"/>
      <point x="336" y="794"/>
      <point x="295" y="745"/>
      <point x="295" y="679" type="curve" smooth="yes"/>
      <point x="295" y="614"/>
      <point x="349" y="561"/>
      <point x="446" y="532" type="curve"/>
      <point x="318" y="414" type="line"/>
      <point x="165" y="494"/>
      <point x="95" y="595"/>
      <point x="95" y="711" type="curve" smooth="yes"/>
      <point x="95" y="839"/>
      <point x="186" y="943"/>
      <point x="397" y="943" type="curve" smooth="yes"/>
      <point x="1098" y="943" type="line"/>
      <point x="1059" y="899" type="line"/>
    </contour>
    <contour>
      <point x="1156" y="65" type="curve"/>
      <point x="1156" y="-106" type="line"/>
      <point x="1097" y="-148"/>
      <point x="1032" y="-169"/>
      <point x="938" y="-169" type="curve" smooth="yes"/>
      <point x="742" y="-169"/>
      <point x="618" y="-48"/>
      <point x="618" y="96" type="curve" smooth="yes"/>
      <point x="618" y="218"/>
      <point x="717" y="318"/>
      <point x="894" y="318" type="curve" smooth="yes"/>
      <point x="1017" y="318"/>
      <point x="1115" y="290"/>
      <point x="1190" y="248" type="curve"/>
      <point x="1190" y="121" type="line"/>
      <point x="1106" y="170"/>
      <point x="1036" y="192"/>
      <point x="938" y="192" type="curve" smooth="yes"/>
      <point x="831" y="192"/>
      <point x="776" y="137"/>
      <point x="776" y="74" type="curve" smooth="yes"/>
      <point x="776" y="1"/>
      <point x="844" y="-42"/>
      <point x="925" y="-42" type="curve" smooth="yes"/>
      <point x="1019" y="-42"/>
      <point x="1087" y="-10"/>
    </contour>
    <contour>
      <point x="1142" y="-254" type="move" name="btm"/>
    </contour>
    <contour>
      <point x="1059" y="1283" type="move" name="top"/>
    </contour>
  </outline>
</glyph>
<glyph name="ivowelsign08deva" format="1">
  <advance width="618"/>
  <outline>
    <contour>
      <point x="186" y="1254" type="line"/>
      <point x="186" y="1350" type="line"/>
      <point x="186" y="1572"/>
      <point x="339" y="1774"/>
      <point x="855" y="1774" type="curve" smooth="yes"/>
      <point x="1383" y="1774"/>
      <point x="1865" y="1731"/>
      <point x="2436" y="1637" type="curve"/>
      <point x="2404" y="1482" type="line"/>
      <point x="1842" y="1557"/>
      <point x="1322" y="1599"/>
      <point x="901" y="1599" type="curve" smooth="yes"/>
      <point x="498" y="1599"/>
      <point x="393" y="1473"/>
      <point x="393" y="1332" type="curve" smooth="yes"/>
      <point x="393" y="1254" type="line"/>
    </contour>
    <component base="aavowelsigndeva"/>
  </outline>
</glyph>
<glyph name="jajadeva" format="1">
  <advance width="2294"/>
  <outline>
    <contour>
      <point x="-30" y="1136" type="line"/>
      <point x="-30" y="1283" type="line"/>
      <point x="1001" y="1283" type="line"/>
      <point x="1001" y="1136" type="line"/>
    </contour>
    <contour>
      <point x="690" y="723" type="line"/>
      <point x="706" y="783" type="line"/>
      <point x="850" y="708"/>
      <point x="937" y="591"/>
      <point x="937" y="426" type="curve" smooth="yes"/>
      <point x="937" y="262"/>
      <point x="814" y="125"/>
      <point x="616" y="125" type="curve" smooth="yes"/>
      <point x="406" y="125"/>
      <point x="213" y="250"/>
      <point x="52" y="513" type="curve"/>
      <point x="155" y="656" type="line"/>
      <point x="326" y="390"/>
      <point x="462" y="307"/>
      <point x="584" y="307" type="curve" smooth="yes"/>
      <point x="686" y="307"/>
      <point x="752" y="373"/>
      <point x="752" y="466" type="curve" smooth="yes"/>
      <point x="752" y="581"/>
      <point x="649" y="695"/>
      <point x="464" y="745" type="curve"/>
      <point x="464" y="896" type="line"/>
      <point x="1309" y="896" type="line"/>
      <point x="1309" y="723" type="line"/>
    </contour>
    <component base="jadeva" xOffset="701"/>
    <contour>
      <point x="1863" y="1283" type="move" name="top"/>
    </contour>
  </outline>
</glyph>
<glyph name="layadeva" format="1">
  <advance width="2397"/>
  <outline>
    <contour>
      <point x="752" y="309" type="curve"/>
      <point x="587" y="390" type="line"/>
      <point x="705" y="662"/>
      <point x="857" y="807"/>
      <point x="1044" y="807" type="curve" smooth="yes"/>
      <point x="1176" y="807"/>
      <point x="1277" y="754"/>
      <point x="1370" y="663" type="curve"/>
      <point x="1242" y="544" type="line"/>
      <point x="1191" y="600"/>
      <point x="1143" y="624"/>
      <point x="1066" y="624" type="curve" smooth="yes"/>
      <point x="965" y="624"/>
      <point x="854" y="538"/>
    </contour>
    <contour>
      <point x="-30" y="1136" type="line"/>
      <point x="-30" y="1283" type="line"/>
      <point x="1122" y="1283" type="line"/>
      <point x="1122" y="1136" type="line"/>
    </contour>
    <contour>
      <point x="898" y="623" type="curve"/>
      <point x="767" y="520" type="line"/>
      <point x="685" y="632"/>
      <point x="601" y="689"/>
      <point x="496" y="689" type="curve" smooth="yes"/>
      <point x="366" y="689"/>
      <point x="294" y="602"/>
      <point x="294" y="491" type="curve" smooth="yes"/>
      <point x="294" y="377"/>
      <point x="366" y="259"/>
      <point x="527" y="105" type="curve"/>
      <point x="381" y="14" type="line"/>
      <point x="215" y="173"/>
      <point x="102" y="361"/>
      <point x="102" y="531" type="curve" smooth="yes"/>
      <point x="102" y="717"/>
      <point x="233" y="869"/>
      <point x="458" y="869" type="curve" smooth="yes"/>
      <point x="642" y="869"/>
      <point x="789" y="773"/>
    </contour>
    <component base="yadeva" xOffset="1090"/>
  </outline>
</glyph>
<glyph name="namadeva" format="1">
  <advance width="1871"/>
  <outline>
    <contour>
      <point x="878" y="668" type="line"/>
      <point x="878" y="494" type="line"/>
      <point x="332" y="494" type="line"/>
      <point x="382" y="545" type="line"/>
      <point x="382" y="297" type="line"/>
      <point x="382" y="238"/>
      <point x="354" y="206"/>
      <point x="311" y="206" type="curve" smooth="yes"/>
      <point x="283" y="206"/>
      <point x="256" y="219"/>
      <point x="225" y="251" type="curve" smooth="yes"/>
      <point x="173" y="303"/>
      <point x="112" y="448"/>
      <point x="112" y="558" type="curve" smooth="yes"/>
      <point x="112" y="628"/>
      <point x="149" y="668"/>
      <point x="231" y="668" type="curve" smooth="yes"/>
    </contour>
    <contour>
      <point x="-30" y="1136" type="line"/>
      <point x="-30" y="1283" type="line"/>
      <point x="947" y="1283" type="line"/>
      <point x="947" y="1136" type="line"/>
    </contour>
    <component base="madeva" xOffset="598"/>
  </outline>
</glyph>
<glyph name="ninedevaNEP" format="1">
  <advance width="1095"/>
  <outline>
    <contour>
      <point x="489" y="1090" type="line"/>
      <point x="375" y="958"/>
      <point x="313" y="795"/>
      <point x="313" y="639" type="curve" smooth="yes"/>
      <point x="313" y="520"/>
      <point x="379" y="455"/>
      <point x="482" y="455" type="curve" smooth="yes"/>
      <point x="593" y="455"/>
      <point x="693" y="484"/>
      <point x="815" y="484" type="curve" smooth="yes"/>
      <point x="974" y="484"/>
      <point x="1077" y="380"/>
      <point x="1077" y="235" type="curve" smooth="yes"/>
      <point x="1077" y="134"/>
      <point x="1039" y="50"/>
      <point x="968" y="-45" type="curve"/>
      <point x="785" y="9" type="line"/>
      <point x="850" y="81"/>
      <point x="889" y="157"/>
      <point x="889" y="220" type="curve" smooth="yes"/>
      <point x="889" y="272"/>
      <point x="850" y="312"/>
      <point x="788" y="312" type="curve" smooth="yes"/>
      <point x="704" y="313"/>
      <point x="592" y="276"/>
      <point x="462" y="276" type="curve" smooth="yes"/>
      <point x="266" y="276"/>
      <point x="115" y="397"/>
      <point x="115" y="641" type="curve" smooth="yes"/>
      <point x="115" y="848"/>
      <point x="207" y="1075"/>
      <point x="348" y="1239" type="curve"/>
      <point x="374" y="1244" type="line"/>
      <point x="542" y="1127"/>
      <point x="667" y="1077"/>
      <point x="755" y="1077" type="curve" smooth="yes"/>
      <point x="825" y="1077"/>
      <point x="856" y="1109"/>
      <point x="856" y="1158" type="curve" smooth="yes"/>
      <point x="856" y="1195"/>
      <point x="845" y="1231"/>
      <point x="823" y="1271" type="curve"/>
      <point x="992" y="1303" type="line"/>
      <point x="1022" y="1237"/>
      <point x="1037" y="1181"/>
      <point x="1037" y="1121" type="curve" smooth="yes"/>
      <point x="1037" y="1008"/>
      <point x="965" y="901"/>
      <point x="795" y="901" type="curve" smooth="yes"/>
      <point x="668" y="901"/>
      <point x="538" y="945"/>
      <point x="393" y="1036" type="curve"/>
    </contour>
  </outline>
</glyph>
<glyph name="onedevaNEP" format="1">
  <advance width="943"/>
  <outline>
    <contour>
      <point x="608" y="920" type="line"/>
      <point x="608" y="1045"/>
      <point x="537" y="1129"/>
      <point x="428" y="1129" type="curve" smooth="yes"/>
      <point x="324" y="1129"/>
      <point x="254" y="1051"/>
      <point x="254" y="956" type="curve" smooth="yes"/>
      <point x="254" y="852"/>
      <point x="332" y="774"/>
      <point x="457" y="774" type="curve" smooth="yes"/>
      <point x="550" y="774"/>
      <point x="624" y="802"/>
      <point x="692" y="851" type="curve"/>
      <point x="719" y="684" type="line"/>
      <point x="652" y="637"/>
      <point x="575" y="605"/>
      <point x="457" y="605" type="curve" smooth="yes"/>
      <point x="231" y="605"/>
      <point x="69" y="766"/>
      <point x="70" y="964" type="curve" smooth="yes"/>
      <point x="71" y="1143"/>
      <point x="201" y="1294"/>
      <point x="422" y="1294" type="curve" smooth="yes"/>
      <point x="661" y="1294"/>
      <point x="806" y="1138"/>
      <point x="806" y="899" type="curve" smooth="yes"/>
      <point x="806" y="80" type="line"/>
      <point x="608" y="80" type="line"/>
    </contour>
  </outline>
</glyph>
<glyph name="paprehalfdeva" format="1">
  <advance width="648"/>
  <outline>
    <contour>
      <point x="678" y="1136" type="line"/>
      <point x="-30" y="1136" type="line"/>
      <point x="-30" y="1283" type="line"/>
      <point x="678" y="1283" type="line"/>
    </contour>
    <contour>
      <point x="349" y="1208" type="line"/>
      <point x="349" y="723" type="line"/>
      <point x="349" y="589"/>
      <point x="418" y="529"/>
      <point x="541" y="529" type="curve" smooth="yes"/>
      <point x="652" y="529"/>
      <point x="766" y="565"/>
      <point x="868" y="637" type="curve"/>
      <point x="961" y="483" type="line"/>
      <point x="846" y="407"/>
      <point x="708" y="356"/>
      <point x="556" y="356" type="curve" smooth="yes"/>
      <point x="310" y="356"/>
      <point x="142" y="496"/>
      <point x="142" y="764" type="curve" smooth="yes"/>
      <point x="142" y="1208" type="line"/>
    </contour>
  </outline>
</glyph>
<glyph name="shacadeva" format="1">
  <advance width="1503"/>
  <outline>
    <contour>
      <point x="172" y="430" type="line"/>
      <point x="78" y="583" type="line"/>
      <point x="362" y="742" type="line"/>
      <point x="576" y="861"/>
      <point x="641" y="936"/>
      <point x="641" y="1024" type="curve" smooth="yes"/>
      <point x="641" y="1098"/>
      <point x="584" y="1152"/>
      <point x="507" y="1152" type="curve" smooth="yes"/>
      <point x="416" y="1152"/>
      <point x="367" y="1097"/>
      <point x="367" y="1023" type="curve" smooth="yes"/>
      <point x="367" y="885"/>
      <point x="580" y="762"/>
      <point x="1182" y="723" type="curve"/>
      <point x="1136" y="571" type="line"/>
      <point x="416" y="609"/>
      <point x="182" y="819"/>
      <point x="182" y="1050" type="curve" smooth="yes"/>
      <point x="182" y="1189"/>
      <point x="290" y="1314"/>
      <point x="490" y="1314" type="curve" smooth="yes"/>
      <point x="698" y="1314"/>
      <point x="816" y="1182"/>
      <point x="816" y="1019" type="curve" smooth="yes"/>
      <point x="816" y="858"/>
      <point x="701" y="728"/>
      <point x="458" y="592" type="curve" smooth="yes"/>
    </contour>
    <contour>
      <point x="1071" y="1169" type="line"/>
      <point x="1278" y="1169" type="line"/>
      <point x="1278" y="-195" type="line"/>
      <point x="1071" y="-195" type="line"/>
    </contour>
    <contour>
      <point x="1095" y="356" type="curve"/>
      <point x="1192" y="152" type="line"/>
      <point x="1127" y="8"/>
      <point x="1000" y="-89"/>
      <point x="836" y="-89" type="curve" smooth="yes"/>
      <point x="669" y="-89"/>
      <point x="548" y="26"/>
      <point x="548" y="178" type="curve" smooth="yes"/>
      <point x="548" y="283"/>
      <point x="607" y="383"/>
      <point x="740" y="453" type="curve"/>
      <point x="824" y="349" type="line"/>
      <point x="748" y="308"/>
      <point x="715" y="245"/>
      <point x="715" y="184" type="curve" smooth="yes"/>
      <point x="716" y="113"/>
      <point x="763" y="68"/>
      <point x="841" y="68" type="curve" smooth="yes"/>
      <point x="946" y="68"/>
      <point x="1072" y="176"/>
    </contour>
    <contour>
      <point x="1533" y="1136" type="line"/>
      <point x="922" y="1136" type="line"/>
      <point x="922" y="1283" type="line"/>
      <point x="1533" y="1283" type="line"/>
    </contour>
    <contour>
      <point x="376" y="87" type="line"/>
      <point x="287" y="222" type="line"/>
      <point x="782" y="505" type="line"/>
      <point x="868" y="375" type="line"/>
    </contour>
    <contour>
      <point x="1071" y="-195" type="move" name="btm"/>
    </contour>
    <contour>
      <point x="1071" y="1283" type="move" name="top"/>
    </contour>
  </outline>
</glyph>
<glyph name="uuvowelsignlowdeva" format="1">
  <advance width="0"/>
  <outline>
    <contour>
      <point x="-112" y="-477" type="line"/>
      <point x="-197" y="-510"/>
      <point x="-252" y="-519"/>
      <point x="-341" y="-519" type="curve" smooth="yes"/>
      <point x="-530" y="-519"/>
      <point x="-688" y="-406"/>
      <point x="-688" y="-231" type="curve" smooth="yes"/>
      <point x="-688" y="-98"/>
      <point x="-554" y="23"/>
      <point x="-356" y="23" type="curve" smooth="yes"/>
      <point x="-136" y="23"/>
      <point x="48" y="-87"/>
      <point x="272" y="-340" type="curve"/>
      <point x="171" y="-451" type="line"/>
      <point x="-49" y="-206"/>
      <point x="-203" y="-138"/>
      <point x="-335" y="-138" type="curve" smooth="yes"/>
      <point x="-446" y="-139"/>
      <point x="-503" y="-195"/>
      <point x="-503" y="-263" type="curve" smooth="yes"/>
      <point x="-503" y="-327"/>
      <point x="-445" y="-379"/>
      <point x="-346" y="-379" type="curve" smooth="yes"/>
      <point x="-286" y="-379"/>
      <point x="-239" y="-371"/>
      <point x="-165" y="-341" type="curve"/>
    </contour>
    <contour>
      <point x="-388" y="0" type="move" name="_btm"/>
    </contour>
  </outline>
</glyph>
